/vscmnt/brussel_pixiu_data/_data_brussel/112/vsc11236/PredSimResults/SUBJ09mtu3D/weighted-expIG/worker_02.mot
version=1
nRows=5
nColumns=50
inDegrees=yes
endheader
                time	         pelvis_tilt	         pelvis_list	     pelvis_rotation	           pelvis_tx	           pelvis_ty	           pelvis_tz	       hip_flexion_r	     hip_adduction_r	      hip_rotation_r	        knee_angle_r	       ankle_angle_r	         mtp_angle_r	       hip_flexion_l	     hip_adduction_l	      hip_rotation_l	        knee_angle_l	       ankle_angle_l	         mtp_angle_l	    lumbar_extension	      lumbar_bending	     lumbar_rotation	 ercspn_r/activation	 intobl_r/activation	 extobl_r/activation	    abd_r/activation	    add_r/activation	hamstrings_r/activation	bifemsh_r/activation	glut_max_r/activation	iliopsoas_r/activation	rect_fem_r/activation	  vasti_r/activation	gastroc_r/activation	 soleus_r/activation	tib_ant_r/activation	 ercspn_l/activation	 intobl_l/activation	 extobl_l/activation	    abd_l/activation	    add_l/activation	hamstrings_l/activation	bifemsh_l/activation	glut_max_l/activation	iliopsoas_l/activation	rect_fem_l/activation	  vasti_l/activation	gastroc_l/activation	 soleus_l/activation	tib_ant_l/activation	
          1.93252651	         -7.87116258	          4.81479351	         -7.67619606	          2.26105602	          0.98143223	          0.01239932	        -10.31560402	         -5.08325439	          5.36770459	         -7.17658958	         10.57544878	         27.84269789	         31.38974964	          1.56398337	         -5.17025988	         -2.09302849	          6.52100886	          0.21534745	         -0.24850109	         -3.20553244	          3.63198846	          0.04338497	          0.00999999	          0.00999999	          0.05354107	          0.00999999	          0.02352234	          0.12726051	          0.04448069	          0.45013826	          0.00999999	          0.01000000	          0.32481341	          0.27802100	          0.01475556	          0.09098575	          0.13188847	          0.03183359	          0.01662228	          0.07287900	          0.11101870	          0.21356110	          0.00999999	          0.10176648	          0.00999999	          0.00999999	          0.01220649	          0.00999999	          0.26782537	
          1.94541002	         -7.95987574	          4.74084286	         -7.68338743	          2.27940282	          0.97929864	          0.01212827	        -10.52190780	         -5.03597280	          4.99135841	         -8.61598657	          9.86060899	         29.86552076	         31.45897127	          1.65391408	         -5.04431430	         -3.74180705	          6.07642322	          0.21598439	          0.05522307	         -3.51257083	          3.74173922	          0.08204591	          0.00999999	          0.00999999	          0.04407669	          0.03563740	          0.02043083	          0.10476486	          0.03661790	          0.45279969	          0.00999999	          0.01252931	          0.29786888	          0.25926944	          0.01214724	          0.07490233	          0.10857474	          0.02620641	          0.01368398	          0.10677157	          0.09597755	          0.17581022	          0.07705155	          0.08377737	          0.00999999	          0.00999999	          0.02262914	          0.01536119	          0.28191869	
          1.95829353	         -8.02740485	          4.66279024	         -7.63988916	          2.29814877	          0.97742546	          0.01178540	        -10.58225608	         -4.97264040	          4.58796629	        -10.38974992	          8.98341768	         31.94327177	         31.33813714	          1.73198108	         -4.90901246	         -5.29835186	          5.58917251	          0.20216643	          0.37778885	         -3.82654438	          3.82009640	          0.08159365	          0.00999999	          0.00999999	          0.03628532	          0.02933783	          0.01915912	          0.08624573	          0.03014501	          0.43890830	          0.00999999	          0.01486616	          0.25578352	          0.22734793	          0.00999999	          0.06627743	          0.08938215	          0.02157394	          0.07672349	          0.09317735	          0.08568909	          0.14473251	          0.11848002	          0.06896817	          0.00999999	          0.00999999	          0.01862902	          0.01264581	          0.33484601	
          1.97117704	         -8.07702732	          4.57615560	         -7.54726877	          2.31694543	          0.97607964	          0.01135209	        -10.38522251	         -4.88424478	          4.17150049	        -12.64086579	          7.90388161	         34.01515761	         31.06830115	          1.82044230	         -4.79575962	         -6.58823216	          4.93490213	          0.17754736	          0.68313656	         -4.14052273	          3.86297866	          0.11626930	          0.00999999	          0.00999999	          0.02987122	          0.03836650	          0.01826046	          0.07100020	          0.02481632	          0.41886616	          0.00999999	          0.01223829	          0.21056905	          0.18715998	          0.00999999	          0.06986553	          0.07358220	          0.01776035	          0.13113280	          0.11539438	          0.07233038	          0.11914836	          0.16759043	          0.05677677	          0.00999999	          0.00999999	          0.01533600	          0.01041043	          0.36832826	
          1.98406055	         -8.10805029	          4.48815915	         -7.40971477	          2.33551750	          0.97543063	          0.01083863	         -9.84649204	         -4.77646422	          3.74757246	        -15.47966149	          6.61694772	         35.91575584	         30.74274491	          1.92721991	         -4.68699398	         -7.82321663	          4.45110685	          0.14755416	          0.94704231	         -4.46328477	          3.86887108	          0.14465456	          0.00999999	          0.00999999	          0.02459093	          0.05644638	          0.01922196	          0.05844960	          0.02042958	          0.37868367	          0.00999999	          0.01007494	          0.17334707	          0.15407598	          0.00999999	          0.06901774	          0.06057518	          0.01462088	          0.16189753	          0.12537587	          0.06120264	          0.09808668	          0.19462592	          0.04674042	          0.00999999	          0.02830706	          0.01262507	          0.00999999	          0.39196665	
